<?xml version="1.0" encoding="UTF-8"?>
<svg width="1600px" height="1600px" viewBox="0 0 1600 1600" version="1.1" xmlns="http://www.w3.org/2000/svg" xmlns:xlink="http://www.w3.org/1999/xlink">
    <title>home_icon</title>
    <g id="Page-1" stroke="none" stroke-width="1" fill="none" fill-rule="evenodd">
        <g id="A0-Copy" transform="translate(-532, -238)">
            <path d="M1939.70861,238.5 C2006.43092,238.5 2030.63306,245.429504 2055.02763,258.475859 C2079.38365,271.501602 2098.4984,290.61635 2111.52414,314.972372 C2124.5705,339.366935 2131.5,363.569083 2131.5,430.29139 L2131.5,1645.70861 C2131.5,1712.43092 2124.5705,1736.63306 2111.52414,1761.02763 C2098.4984,1785.38365 2079.38365,1804.4984 2055.02763,1817.52414 C2030.63306,1830.5705 2006.43092,1837.5 1939.70861,1837.5 L724.29139,1837.5 C657.569083,1837.5 633.366935,1830.5705 608.972372,1817.52414 C584.61635,1804.4984 565.501602,1785.38365 552.475859,1761.02763 C539.429504,1736.63306 532.5,1712.43092 532.5,1645.70861 L532.5,430.29139 C532.5,363.569083 539.429504,339.366935 552.475859,314.972372 C565.501602,290.61635 584.61635,271.501602 608.972372,258.475859 C633.366935,245.429504 657.569083,238.5 724.29139,238.5 Z" id="Rectangle" stroke="#979797" fill="#D43900"></path>
            <polygon id="Triangle" fill="#DCDEEF" points="1332 404 1952 889 712 889"></polygon>
            <path d="M1802,850 L1802,1607 L862,1607 L862,850 L1802,850 Z M1235,966 L969,966 L969,1261 L1235,1261 L1235,966 Z" id="Combined-Shape" fill="#DCDEEF"></path>
            <line x1="1421.5" y1="1606.5" x2="1421.5" y2="964.5" id="Line" stroke="#D43900" stroke-width="22" stroke-linecap="square"></line>
            <line x1="1711" y1="1607" x2="1711" y2="965" id="Line" stroke="#D43900" stroke-width="22" stroke-linecap="square"></line>
            <line x1="1422" y1="953" x2="1711.5" y2="953.5" id="Line-2" stroke="#D43900" stroke-width="20" stroke-linecap="square"></line>
            <ellipse id="Oval" fill="#D43900" cx="1638.5" cy="1300" rx="44.5" ry="14"></ellipse>
        </g>
    </g>
</svg>